# xmcd CD database file
#
# Track frame offsets:
#	150
#	26755
#	52941
#	75171
#	97852
#	118247
#	143855
#	168191
#	191199
#	208719
#	227282
#	247757
#	261586
#
# Disc length: 3797 seconds
#
# Revision: 0
# Processed by: cddbd v1.5.2PL0 Copyright (c) Steve Scherf et al.
# Submitted via: CDex 2.04
#
DISCID=a30ed30d
DTITLE=Mark Knopfler - Shangri-La
DYEAR=2004
DGENRE=Blues
TTITLE0=05:15 AM
TTITLE1=Boom, like that
TTITLE2=Sucker row
TTITLE3=The Trawlerman's Song
TTITLE4=Back to Tupelo
TTITLE5=Our Shangri-La
TTITLE6=Everybody pays
TTITLE7=Song for Sonny Liston
TTITLE8=Whoop de doo
TTITLE9=Postcards from Paraguay
TTITLE10=Stand up guy
TTITLE11=Donegan's gone
TTITLE12=Don't crash the ambulance
EXTD=YEAR: 2004
EXTT0=
EXTT1=
EXTT2=
EXTT3=
EXTT4=
EXTT5=
EXTT6=
EXTT7=
EXTT8=
EXTT9=
EXTT10=
EXTT11=
EXTT12=
PLAYORDER=
